HIERARCHY
ROOT Hips
{
	OFFSET 0.00 0.00 0.00
	CHANNELS 6 Xposition Yposition Zposition Xrotation Yrotation Zrotation
	JOINT Spine
	{
		OFFSET 0.00000 3.24121 0.00000
		CHANNELS 3 Xrotation Yrotation Zrotation
		JOINT Head
		{
			OFFSET 0.00000 18.38296 0.00000
			CHANNELS 3 Xrotation Yrotation Zrotation
			End Site
			{
				OFFSET 0.00000 4.52755 0.00000
			}
		}
		JOINT LeftShoulder
		{
			OFFSET 0.00000 12.82826 0.00000
			CHANNELS 3 Xrotation Yrotation Zrotation
			JOINT LeftArm
			{
				OFFSET 7.74805 0.00000 0.00000
				CHANNELS 3 Xrotation Yrotation Zrotation
				JOINT LeftForeArm
				{
					OFFSET 10.63561 0.00000 0.00000
					CHANNELS 3 Yrotation Zrotation Xrotation
					JOINT LeftHand
					{
						OFFSET 8.34675 0.00000 0.00000
						CHANNELS 3 Xrotation Yrotation Zrotation
						JOINT LeftHandThumb1
						{
							OFFSET 0.00000 0.00000 0.00000
							CHANNELS 3 Xrotation Zrotation Yrotation
							End Site
							{
								OFFSET 0.00000 0.00000 3.93700
							}
						}
						End Site
						{
							OFFSET 3.93700 0.00000 0.00000
						}
					}
				}
			}
		}
		JOINT RightShoulder
		{
			OFFSET 0.00000 12.82826 0.00000
			CHANNELS 3 Xrotation Yrotation Zrotation
			JOINT RightArm
			{
				OFFSET -7.74805 0.00000 0.00000
				CHANNELS 3 Xrotation Yrotation Zrotation
				JOINT RightForeArm
				{
					OFFSET -10.63561 0.00000 0.00000
					CHANNELS 3 Yrotation Zrotation Xrotation
					JOINT RightHand
					{
						OFFSET -8.34675 0.00000 0.00000
						CHANNELS 3 Xrotation Yrotation Zrotation
						JOINT RightHandThumb1
						{
							OFFSET 0.00000 0.00000 0.00000
							CHANNELS 3 Xrotation Zrotation Yrotation
							End Site
							{
								OFFSET 0.00000 0.00000 3.93700
							}
						}
						End Site
						{
							OFFSET -3.93700 0.00000 0.00000
						}
					}
				}
			}
		}
	}
	JOINT LeftUpLeg
	{
		OFFSET 3.43402 0.00000 0.00000
		CHANNELS 3 Xrotation Yrotation Zrotation
		JOINT LeftLeg
		{
			OFFSET 0.00000 -15.71302 0.00000
			CHANNELS 3 Xrotation Yrotation Zrotation
			JOINT LeftFoot
			{
				OFFSET 0.00000 -14.43512 0.00000
				CHANNELS 3 Xrotation Yrotation Zrotation
				JOINT LeftToeBase
				{
					OFFSET 0.00000 -1.27828 4.77061
					CHANNELS 3 Xrotation Yrotation Zrotation
					End Site
					{
						OFFSET 0.00000 0.00000 2.95275
					}
				}
			}
		}
	}
	JOINT RightUpLeg
	{
		OFFSET -3.43402 0.00000 0.00000
		CHANNELS 3 Xrotation Yrotation Zrotation
		JOINT RightLeg
		{
			OFFSET 0.00000 -15.71302 0.00000
			CHANNELS 3 Xrotation Yrotation Zrotation
			JOINT RightFoot
			{
				OFFSET 0.00000 -14.43512 0.00000
				CHANNELS 3 Xrotation Yrotation Zrotation
				JOINT RightToeBase
				{
					OFFSET 0.00000 -1.27828 4.77061
					CHANNELS 3 Xrotation Yrotation Zrotation
					End Site
					{
						OFFSET 0.00000 0.00000 2.95275
					}
				}
			}
		}
	}
}
MOTION
Frames: 11
Frame Time: 0.008333
 -3.3650 33.6272 -8.7620 24.5842 21.4325 -43.2295 -23.2859 -26.1479 20.6722 8.6098 -10.4524 10.2472 32.3647 16.9373 28.6635 -89.6925 -49.5189 -116.4738 -80.7287 -0.0000 -33.3530 0.3643 25.8248 -0.8362 33.1476 -0.0000 26.2537 45.6825 -20.2126 -6.2553 -56.7548 38.9055 81.6395 81.5166 0.0000 -63.6345 -0.6056 1.2550 25.7605 32.8623 0.0000 -24.3270 -45.9216 10.6839 28.4706 24.6687 0.0000 0.0000 -20.8732 23.3347 12.2809 1.1955 0.0000 0.0000 -154.8470 9.3946 -32.4914 97.6452 -0.0000 -0.0000 43.7515 -12.9444 12.8804 43.2820 -0.0000 0.0000
 -3.3488 33.5976 -8.8226 24.7642 21.5639 -43.1531 -23.2631 -25.9194 20.5974 7.7497 -10.5442 10.0394 32.4957 16.8800 28.5355 -89.3912 -49.4650 -116.3656 -80.6408 -0.0000 -33.5365 0.4099 25.7198 -0.9445 33.1476 -0.0000 26.2537 45.6296 -20.1828 -6.4596 -56.7044 39.2011 81.5256 81.2734 0.0000 -63.9332 -0.6728 1.3872 25.8753 32.8623 0.0000 -24.3270 -46.3071 10.9539 28.3692 24.7907 0.0000 0.0000 -19.4733 22.9505 9.9996 0.5529 -0.0000 -0.0000 -154.6524 9.2411 -32.2316 99.3472 0.0000 -0.0000 43.8342 -12.5925 12.7223 43.4298 -0.0000 0.0000
 -3.3246 33.5634 -8.8802 24.9106 21.7306 -42.9726 -23.2599 -25.5999 20.4297 6.8561 -10.7204 9.8063 32.7042 16.8371 28.4110 -89.2002 -49.4268 -116.3019 -80.5998 -0.0000 -33.3992 0.4577 25.6362 -1.0577 33.1476 -0.0000 26.2537 45.6481 -20.2055 -6.5931 -56.6501 39.5340 81.3724 81.0845 0.0000 -64.1070 -0.8347 1.7343 25.7062 32.8623 0.0000 -24.3270 -46.6248 11.2924 28.1768 25.0293 0.0000 0.0000 -18.9837 22.1992 9.0671 1.5932 0.0000 -0.0000 -154.4974 9.1002 -31.8977 100.9254 0.0000 0.0000 43.7736 -12.5581 12.4615 43.4316 0.0000 -0.0000
 -3.2928 33.5262 -8.9395 25.0492 21.8861 -42.7584 -23.2618 -25.2717 20.2792 5.9704 -10.8807 9.4866 32.8914 16.8196 28.2907 -88.9774 -49.3347 -116.2392 -80.5670 -0.0000 -33.3082 0.5725 25.5581 -1.3267 33.1476 -0.0000 26.2537 45.7200 -20.1994 -6.7424 -56.5543 39.7572 81.1872 80.9421 0.0000 -64.6401 -0.9476 1.9595 25.8146 32.8623 0.0000 -24.3270 -46.8889 11.5777 27.9355 25.3592 0.0000 0.0000 -18.6816 21.5492 8.4078 0.6269 -0.0000 -0.0000 -154.3686 8.9716 -31.6298 102.3153 -0.0000 0.0000 43.7184 -12.4955 12.2709 43.3879 -0.0000 0.0000
 -3.2575 33.4864 -9.0002 25.2129 22.0452 -42.5013 -23.3076 -24.9265 20.0912 5.0748 -11.0230 9.1044 33.0928 16.7929 28.1281 -88.8191 -49.3098 -116.1981 -80.5843 -0.0000 -33.2972 0.5810 25.5049 -1.3491 33.1476 -0.0000 26.2537 45.7017 -20.2343 -6.8860 -56.4104 39.9537 81.0819 80.8375 0.0000 -64.9325 -1.0184 2.0983 25.8961 32.8623 0.0000 -24.3270 -47.1048 11.8523 27.6074 25.6537 0.0000 0.0000 -18.4873 20.9436 8.0156 0.6050 0.0000 -0.0000 -154.2775 8.8866 -31.3177 103.5010 -0.0000 -0.0000 43.6944 -12.6231 12.1818 43.4684 -0.0000 0.0000
 -3.2110 33.4462 -9.0619 25.4121 22.2222 -42.2431 -23.3627 -24.6614 19.9311 4.2081 -11.1404 8.6216 33.2692 16.8105 27.9135 -88.7483 -49.2834 -116.2465 -80.5542 -0.0000 -33.4226 0.5160 25.4000 -1.2030 33.1476 -0.0000 26.2537 45.8149 -20.2909 -7.0362 -56.3433 40.1926 80.9254 80.7775 0.0000 -65.2486 -1.1893 2.4578 25.8321 32.8623 0.0000 -24.3270 -47.2461 12.0559 27.1702 25.9130 -0.0000 0.0000 -18.4263 20.4612 7.6043 1.6272 -0.0000 0.0000 -154.2051 8.8500 -31.0894 104.5003 -0.0000 0.0000 43.6953 -12.7014 12.1521 43.4429 0.0000 -0.0000
 -3.1589 33.4034 -9.1225 25.6347 22.4703 -41.9101 -23.4634 -24.4192 19.6653 3.3931 -11.2652 8.0273 33.4454 16.7657 27.6984 -88.6718 -49.2428 -116.2855 -80.5520 -0.0000 -33.4319 0.4798 25.4817 -1.1151 33.1476 -0.0000 26.2537 45.9054 -20.3501 -7.1516 -56.3437 40.2592 80.9307 80.6600 0.0000 -65.3970 -1.2350 2.5448 25.8980 32.8623 0.0000 -24.3270 -47.2607 12.2585 26.5795 26.1039 0.0000 -0.0000 -18.3681 19.9751 7.4034 2.1276 0.0000 -0.0000 -154.1527 8.8679 -30.8362 105.3150 0.0000 -0.0000 43.6033 -12.8757 11.9307 43.4024 0.0000 0.0000
 -3.1030 33.3652 -9.1875 25.9046 22.7254 -41.7018 -23.5337 -24.3011 19.5413 2.6282 -11.3125 7.4263 33.5509 16.7183 27.4767 -88.5507 -49.1559 -116.2991 -80.4894 -0.0000 -33.4101 0.6476 25.3578 -1.5119 33.1476 -0.0000 26.2537 45.9496 -20.4195 -7.3166 -56.3127 40.3142 80.9359 80.5283 0.0000 -65.6634 -1.3465 2.7891 25.7822 32.8623 0.0000 -24.3270 -47.2649 12.2667 25.9838 26.2980 0.0000 -0.0000 -18.2063 19.4317 7.5242 1.1677 -0.0000 0.0000 -154.1304 8.8516 -30.7750 105.9156 0.0000 -0.0000 43.6180 -12.9628 11.7595 43.4009 -0.0000 -0.0000
 -3.0448 33.3300 -9.2529 26.1215 22.9818 -41.5269 -23.5326 -24.2027 19.5088 1.9233 -11.3167 6.7891 33.6720 16.7054 27.2156 -88.6230 -49.1124 -116.4175 -80.4645 -0.0000 -33.3191 0.5603 25.4957 -1.3015 33.1476 -0.0000 26.2537 45.9923 -20.4680 -7.4755 -56.3286 40.2856 80.9717 80.3861 0.0000 -65.8535 -1.3935 2.8721 25.8965 32.8623 0.0000 -24.3270 -47.1787 12.1924 25.4094 26.4246 -0.0000 0.0000 -18.1082 18.9582 7.6470 0.7223 -0.0000 -0.0000 -154.0384 8.7866 -30.7924 106.2998 0.0000 -0.0000 43.5439 -12.6997 11.3692 43.5494 0.0000 -0.0000
 -2.9916 33.2969 -9.3170 26.2886 23.2660 -41.3519 -23.4508 -24.1344 19.4796 1.2480 -11.2263 6.2066 33.7268 16.6992 26.9970 -88.6583 -49.0662 -116.5125 -80.4423 -0.0000 -33.2697 0.5303 25.6065 -1.2269 33.1476 -0.0000 26.2537 45.9883 -20.4575 -7.6073 -56.3245 40.1660 81.0437 80.2408 0.0000 -66.0485 -1.4551 2.9953 25.9260 32.8623 0.0000 -24.3270 -47.0234 11.9869 24.8449 26.6344 -0.0000 0.0000 -18.0301 18.5580 7.7057 1.2068 -0.0000 -0.0000 -153.9434 8.6671 -30.8158 106.4930 0.0000 0.0000 43.5424 -12.5754 11.1613 43.6205 0.0000 0.0000
 -2.9385 33.2665 -9.3820 26.4242 23.5155 -41.1915 -23.3621 -24.0464 19.4998 0.6615 -11.1820 5.6339 33.7476 16.6344 26.8130 -88.6402 -49.0092 -116.5833 -80.4294 -0.0000 -33.1179 0.4922 25.6451 -1.1372 33.1476 -0.0000 26.2537 46.0081 -20.5007 -7.7232 -56.4067 40.1899 81.1074 80.0566 0.0000 -66.1787 -1.4747 3.0252 26.0035 32.8623 0.0000 -24.3270 -46.8548 11.6843 24.3373 26.9401 -0.0000 -0.0000 -17.8170 18.0004 7.7571 1.0924 -0.0000 0.0000 -153.8723 8.4636 -30.8438 106.4736 -0.0000 0.0000 43.6071 -12.4339 10.9849 43.6719 -0.0000 -0.0000
